<?xml version="1.0" encoding="UTF-8"?>
<svg class="icon fill" id="Layer_2" data-name="Layer 2" xmlns="http://www.w3.org/2000/svg" viewBox="0 0 438.85 125.22">
  <g id="Layer_1-2" data-name="Layer 1">
    <g>
      <polygon points="125.22 0 125.22 125.22 57.67 125.22 57.67 80.54 42.32 80.54 42.32 125.22 0 125.22 0 0 67.5 0 67.5 44.68 82.9 44.68 82.9 0 125.22 0"/>
      <path d="M156.82,0V125.22h54.91v-44.63h15.4v44.63h54.91V0h-125.22Zm70.31,66.21h-15.4V21.53h15.4v44.68Z"/>
      <polygon points="438.85 0 438.85 125.22 313.63 125.22 313.63 50.13 383.94 50.13 383.94 79.42 354.66 79.42 354.66 94.76 399.29 94.76 399.29 34.73 313.63 34.73 313.63 0 438.85 0"/>
    </g>
  </g>
</svg>