<?xml version="1.0" encoding="UTF-8"?>
<svg class="icon fill" id="Layer_2" data-name="Layer 2" xmlns="http://www.w3.org/2000/svg" viewBox="0 0 438.85 351.2">
  <g id="Layer_1-2" data-name="Layer 1">
    <g>
      <path d="M159.8,345.92c-1.9,.77-3.27-.95-3.85,.95,4.65-.05,8.85,4.17,14.88,4.32-1.35-4.1-8.25-2.62-11.02-5.27Zm-5.75-.95c-1.18-.92-1.93-2.28-2.88-3.38-1.1-.35-2.47-.42-3.37-.95-10.03-7.98-21.55-11.6-29.73-21.1-8.78-2.3-10.95-13.65-20.15-13.9,3.78,4.65,6.8,10.38,11.5,13.9,1.25,.93,2.98,.93,4.33,1.93,2.47,1.82,4.23,4.9,6.73,6.7,1.37,1,3.32,1.98,4.8,2.88,8.37,5.2,18.95,12.47,28.27,14.4,.52,.03,1.22-.23,.5-.48Zm213.22-114.45l-7.02-5.25c-.72-.57-1.35-1.22-1.82-2-1.15,1.02-2.3,2.02-3.45,3-7.08,6-13,9.8-18.08,11.58-3.35,6.6-8.05,12.02-10.2,17.93-8.83,6.35-13.9,16.45-23.98,21.58-.18,1.57-1.4,2.12-1.93,3.35-10.57,3.95-16.4,11.88-30.2,11.52-1.45,1.75-3.03,3.38-5.3,4.3-4.98-1.22-9.28,2.4-11.98,3.37-3.95,1.4-11.88,.95-15.82,1.43-16.33,1.97-36.63-1.37-51.33-5.27-3.95-1.05-8.25-3.78-11.02-4.8-6.35-2.3-11.33-.8-13.42-6.23-1.73,.18-1.78,1.28-3.38,.48-5.85-4.25-12.53-7.87-18.7-10.55-5.3-10.2-16.78-14.23-22.05-24.45-8.12-4.6-12.45-13.02-17.58-20.65-1.82,3.85-3.57,7.45-5.25,10.75,.9,4.2,1.35,9,.75,13.25,3.75,1.67,5.73,7.9,.95,9.6-.22,3.75,4.1,8.65,3.38,12.95,2.8,.77,3.97-.15,4.8-2.4,1.92,2.45,1.97,7.05,3.35,10.08,2.6,.5,2.08-2.1,4.33-1.93,.82,1.58,2.57,2.2,4.3,2.87-1,3.55,2.35,2.78,3.38,4.33-.58,.22-1.1,.5-1.45,.95,3.22-1.68,2.8,2.57,3.82,3.82,2.15,2.62,7.73,4.33,6.73,9.13,3.7-.98,2.63-3.38,4.8-4.33,1.88,3.4,3.6,2.28,7.2,5.28,.75-1.83,3.2-4.43,2.87-5.75-.05,2.1-2.35-.5-2.4-1.45,2.15-4.65,.33-9.4,.95-13.42,3.98,2.1,4.55,7.6,7.68,10.55-.35,3.3-3.22,5.2-3.35,9.13,2.2,2.15,5.27,4.23,9.1,3.35,4.4,2.48,5.03,8.73,7.2,13.42,2.3,.18,2.63,.18,4.8,.98-.08,1.18-.08,2.3,.48,2.88,5.27,.65,6.7-3.55,11.52-1.93,7.5-7.4,18.55-2.83,28.78-4.32,.52-3.72,3.2-2.77,6.22-4.3,.92,1.53-.27,2.4,.48,4.3,.68,.95,2.9,.33,2.87,1.92,3.27-1.25,7.1-3.97,3.85-5.27,3.97-1.13,6.28-2.5,10.07-2.87,.7,2.1,2.3,1.45,1.43,4.32,6.88-.35,11.55-.65,16.8-1.93,.75,.85,.12,3.05,1.43,3.35,3.2,1.37,3.95-2.83,8.15-1.93,.8,.92,.85,4.02-.48,4.32,2.85,1.98,4.7-.47,8.65,0,1-.75,2.12-1.37,3.35-1.92,10.52-.4,15.75-6.8,22.55-10.55,2.7-1.47,5.18-2.57,7.17-4.3,14.73-12.7,26.33-30,39.83-43.65,2.17-5.33,6.62-8.37,10.07-12.47,1.4,.33,1.93,3.1,3.35,1.93,3.77-2.32,.42-12.28,6.22-11.5,4.75,.62,2.85,8.72,3.37,13.9,.27,2.93,1.93,5.38,1.9,8.15,0,3.87-1.95,6.78,.5,8.63,4.5-2.42,5.8-8.72,6.7-13.42,1.4-7.2,1.8-15.23,2.1-23.2-2.55,1.4-5.7,1.18-8.05-.6Zm-263.6,36.75c-1.7-.25-1.17,1.7-2.88,1.45-1.3-1.1-.92-2.43-1.42-3.38,.8-.6,2.7,.3,4.3-.48-.33,1.48-.33,.92,0,2.4Zm39.32,15.83c-1-.27-1.35-1.18-2.87-.95-.1-.85,.5-2.4-.95-1.93,1.58-1.58-1.3-1.15-.95-2.87,1.7-.28,2.3,.55,3.35,.95-1.1,1.95,1.8,1.35,1.43,4.8Zm45.58,28.78c-2.73-7.75,7.2-1.5,0,0h0Zm9.1,0c.05-.68,.1-1.35-.48-1.45,.13-1.1,2.1-.25,2.4,0-.4,.72-.72,1.52-1.93,1.45Zm182.75-178.85c-2-10.77-6.9-20.85-8.63-29.73-.8-1.3-2.62-1.55-3.37-2.9-5.7-21.6-17.25-37.4-31.18-50.83-3.07,.62-4.27,.18-6.7,1.45-.42-.85-1.35-1.22-.98-2.88-2.2,.2-4.35,1-4.3-1.92,2.77,.2,4.42,.4,7.68,.95-1.13-1.5-1.55-1.2-.98-3.83-20.33-22.05-52.6-37.57-86.8-41.25-14.6-3.15-29.77-2.27-44.12-.48-6,.75-11.2,4.82-17.75,3.85-12.55,5.17-26.45,9.05-36.45,16.77-1.3,.05-.98-.8-1.93,0-6.07,4.95-14.05,8-19.17,13.9-11.13,6.8-19,16.83-28.78,24.95-.3,1.52,.9,1.47,0,2.4-5.9,2.53-6.03,7.98-9.13,12.92,1.25,.2,1.4,1.5,1.93,2.4-5.72,6.18-5,20.6-14.88,21.1,5.1,5.77-.33,13.37-4.32,17.75,1.8,2.13-.68,4.1-1.43,5.28,.45,2.85-.77,4.95-.85,7.07,1.08-2.82,1.98-5.42,2.7-7.8,.6-1.97,2-3.6,3.85-4.52,1.88-.92,4.02-1.02,5.95-.3l2.35,.88c.28-2.85,.45-5.75,.88-8.75,1-7.5,7.92-12.7,6.7-21.1,3.18-2,4.85-7.3,4.8-11.03,3.6,.88,7.85-.45,9.13-3.35-.3-2.28-2.25-2.9-2.4-5.28,4.45-8.65,13-13.22,17.25-22.07,3.02,.48,2.98-2.15,4.32-3.35,22.32-16.58,54.4-28.1,88.72-25.9,.75,.7,1.68,1.22,1.93,2.4,3.05,.62,5.75,1.6,9.1,1.92,4.12,4.38,12.25,4.52,18.22,7.17,8.07,3.6,17.25,8.4,25.42,11.53,11.55,4.4,24.45,8.57,32.63,15.82,9.32,8.27,11.85,20.65,17.25,32.13,2.2,4.65,4.82,8.57,6.73,13.42-2.57-1.6-4.97-3.33-6.22-6.22-1.48,.35-1.43-.83-2.88-.5-2.47-3.75-6.32-6.15-11.05-7.65-3.03-4.95-10.12-6.25-15.35-8.65-4.05-1.85-7.02-7.12-11.5-7.17,.05,2.8,3.1,2.73,3.82,2.4,.25,1.5-1.45,1.07-.95,2.87,1.88,2.78,4.58,3.7,6.73,6.22,1,1.18,1.2,3.33,2.4,4.8,4.3,5.3,11.65,8.25,15.83,13.42,2.25,2.8,3.5,6.25,6.22,8.63,2.1,1.82,4.73,2.27,6.73,3.82,1.4,1.13,2.65,2.62,3.82,4.23,2.75-7.55,5.4-15.2,7.95-22.98,1.25-3.82,5.3-5.98,9.17-4.85l6.82,1.95c1.95,.55,3.57,1.88,4.55,3.65,.95,1.78,1.15,3.85,.55,5.8-3.95,12.6-7.95,24.67-12,36.13,1.13,.9,2.32,1.73,3.57,2.45,1.05,2.47,2,5.45,.48,8.15-2.55-1.4-4.15-3.75-5.67-6.15-1.63,4.52-3.25,8.92-4.88,13.25,.48,.52,.95,1.05,1.45,1.55,1.97,6.13,11.05,16.4,11.02,23.5,0,2.45-1.9,5.23-3.07,8.25,6.77-4.55,14.7-7.4,23.63-8.5,3-.4,5.92,1.07,7.4,3.65,1.43,0,2.85,.4,4.13,1.25l3.7,2.45c1.3-3.65,1.82-7.38-.27-11.43,8.48-11.15,3.22-28.37,.48-43.15Zm-69.08-18.7c-1.13,0-1.4-.83-2.88-.5-8.25-8.2-19.97-15.48-33.57-16.78,4.7,6.5,12.6,9.8,19.2,14.4,.28,4.35,4.45,4.8,7.68,6.22,.1,.9-.55,1.05-.5,1.93,5.15,4.48,9.6,9.63,13.85,14.97,1.62-4.1,3.22-8.25,4.77-12.45-2.95-2.53-5.92-5-8.55-7.8ZM61.32,195.35c-1.3,2.32-2.6,4.63-3.9,6.9-.2,2.98-.07,5.83,2.6,7.5,1.38,.08-.57-3.15,1.45-2.4,1.18,.4,1.75,1.42,1.93,2.87,.2,2.1-2.3,1.52-1.45,4.3,1,.15,1.78-.03,2.45-.43,.62-8.07,1.3-17.45,2.08-28.17-1.65,3.1-3.37,6.22-5.15,9.42Zm-.5-47.55c1.73-3.75,3.27-7.25,4.63-10.55-2.55,3.27-5.18,6.07-4.63,10.55Zm-2.7,.55c-.3,1-.93,1.65-1.93,1.93-.38,2.68-.57,5.57-.7,8.65,1.73-3.5,3.33-6.82,4.8-10-.92-.02-1.28-.57-2.17-.57Zm162.1,177.43c-2.3-.23-2.27,1.88-2.87,3.37,2.02,1.75,4.52-1.45,2.87-3.37Zm39.8-1.9c.15,1,2.45,2.3,2.9,1.43-1.18-.28-1.03-1.85-2.9-1.43Zm90.18-45.08c4.33,.48,7.08-.6,9.13-2.4-2.55-1.73-7.35,.4-9.13,2.4Zm-259.47,12.93c-8.6-8.27-12.15-21.65-18.15-32.55l-4.62-3.05c.65,2.83,1.43,5.53,3.12,7.33,1.82,10.32,9.92,18.52,14.38,27.8,3.82,2.6,5.62,7.17,9.6,9.6-.52-3.95-4.17-4.8-4.32-9.12Zm-26.7-72.78c.05-.85,.12-1.7,.2-2.57-.65-.23-1.43-.2-2.28,.07-.38-2.17-2.88-2.22-1.93-5.75h-1.42c.02,8.75,1.32,18.8,3.77,28.12,.43-4.95,.98-11.28,1.58-18.97-.3-.35-.62-.7-1.02-1,.52-.12,.87-.05,1.1,.1Zm-9.75-132.45c1.05,1.67,2.83,2.62,5.75,2.4,2.02-2.6-5.15-6.9-5.75-2.4ZM82.12,17.9c-.38,3,1.02,9.6,4.8,12,9.45,5.95,20.12-2.6,21.1-11.05-1.52-17.2-24.12-15.23-25.9-.95Z"/>
      <g>
        <path d="M60.82,147.8c-.18,.37-.35,.75-.52,1.12,.2,.03,.42,0,.7-.07-.07-.35-.15-.7-.18-1.05Z"/>
        <g>
          <polygon points="154.57 171.8 136.25 170.05 135.07 165.75 153.62 163.62 154.57 171.8"/>
          <polygon points="154.57 171.8 136.25 170.05 135.07 165.75 153.62 163.62 154.57 171.8"/>
        </g>
        <g>
          <polygon points="428.12 170.12 409.8 168.4 408.62 164.1 427.15 161.95 428.12 170.12"/>
          <polygon points="428.12 170.12 409.8 168.4 408.62 164.1 427.15 161.95 428.12 170.12"/>
        </g>
      </g>
      <g>
        <path d="M146.2,95.97c-14.67,40.03-27.73,73.3-39.15,99.85-.17,.4-.35,.8-.52,1.2-.12,.3-.25,.6-.38,.9-4.05,9.38-7.8,17.77-11.25,25.18-.52,1.15-1.05,2.25-1.58,3.35-5.75,12.17-10.6,21.45-14.55,27.83l-9.77-6.43c.8-7.25,2-21.6,3.6-43.1,.03-.35,.05-.72,.07-1.07,.15-1.8,.28-3.63,.43-5.53,.87-11.82,1.85-25.55,2.92-41.17l.57-8.95c-5.35,12.43-12.07,26.03-20.22,40.77-.53,.95-1.05,1.93-1.6,2.9-8.83,15.85-17.73,30.22-26.7,43.17-8.98,12.93-16.65,21.93-23,27l-5.07-4.48c7.4-5.87,16.6-17.2,27.57-34.05,9.88-15.07,19.2-31.07,28-47.95,1-1.93,2-3.87,3-5.83,9.7-19.05,16.22-34.1,19.6-45.15l3.83,1.43,7.68,2.88c-.13,1.3-.28,3.45-.4,6.43-.12,3-.3,6.62-.57,10.92-2.2,39.25-3.78,65.55-4.67,78.95,7.4-13.65,16.2-31.9,26.4-54.77,10.2-22.88,20.52-48.03,30.9-75.45l4.88,1.17Z"/>
        <polygon points="154.57 171.8 136.25 170.05 135.07 165.75 153.62 163.62 154.57 171.8"/>
        <path d="M437.3,199.95c-15.35,8.72-26.73,15.8-34.13,21.28,.12-2.35,1.35-6.8,3.7-13.38,2.35-6.55,4.95-12.83,7.8-18.8l-8-4.67c-2.47,4.9-4.55,10.4-6.6,15.9-4.15,2.4-8.6,5-13.48,7.87-4.12,2.45-7.65,4.55-10.55,6.38-.68,.42-1.33,.82-1.93,1.22,.92-3.63,1.7-6.78,2.35-9.45,1.37-5.67,2.15-9.23,2.32-10.62l-1.5-1-4.93-3.27c-4.42,5.33-10.52,11.55-18.32,18.7-5.28,4.82-9.8,8.6-13.57,11.35-1.83,1.35-3.48,2.43-4.95,3.27-.5-2.85,.62-6.37,3.38-10.5,.1-.18,.2-.33,.33-.5,2.97-4.38,7.17-8.33,12.57-11.9s11.15-5.87,17.25-6.93l-3.1-7.23c-8.35,1.05-15.5,3.75-21.55,8.1-1.88,1.35-3.37,2.77-4.92,4.2-.1,.1-.18,.2-.27,.27l-.18-.3c-7.8,3.93-20.27,10.68-37.43,20.27l-9.35,5.27c7.53-13.65,15.77-31.22,24.75-52.72,3.15-7.58,6.3-15.53,9.4-23.83,1.7-4.52,3.4-9.17,5.1-13.93,.33-1,.68-2,1.05-3,3.6-10.38,7.2-21.25,10.77-32.65l-6.82-1.95c-3.07,9.32-6.28,18.45-9.6,27.43-.35,.92-.67,1.82-1.02,2.72-1.75,4.67-3.55,9.3-5.38,13.85-7.83,19.53-16.35,38.18-25.5,55.95-6.7-.12-13.25-.82-19.52-2.47v-.98c0-3.25-.5-5.6-1.45-7.02-1-1.42-2.53-2.35-4.6-2.82-2.07-.45-5.33-.68-9.73-.68-.65,0-1.65,.25-2.95,.77l-6.82-3.12c-8.35,9.4-13.82,19.1-17.88,28.93-.1-.33-.12-.5-.22-.85-.77-2.08-8.6,7.45-37.08,10.83-2.23,.27-3.9,.07-5.07-.57-.77-.4-1.15-1.23-1.15-2.53,0-2.35,1.65-5.4,4.95-9.18,3.33-3.77,8.83-8.25,16.48-13.45,3.9-2.6,10.15-6.38,18.72-11.3l-4.1-7.02c-6.62-.12-13.47,2.27-20.55,7.23-7.1,4.92-12.73,10.7-16.88,17.35-7.4,6.47-13.65,12.72-18.72,18.7,5.72-16.37,16.65-44.3,32.75-83.83l17.17-42.5-6.82-3.52c-5.73,14.05-15.35,36.6-28.85,67.65-7.95,18.25-14.32,33.1-19.25,44.85-15.15,8.6-26.45,15.65-33.8,21.05,.12-2.35,1.37-6.77,3.72-13.35,2.32-6.58,4.93-12.83,7.77-18.83l-8-4.67c-3.23,6.37-6.1,13.27-8.55,20.68-2.47,7.42-3.72,12.62-3.72,15.6,0,.77,.08,1.3,.2,1.55l8.2,5.27c5.38-4.42,16.23-11.9,32.05-22.15-.55,1.28-1.15,2.73-1.65,3.93-5.2,12.68-7.85,20.7-7.98,24.08l10.52,4.47c4.15-8.2,10.93-16.45,20.28-24.75,.25,2.2,.9,4.02,1.95,5.45,1.95,2.47,3.6,4.2,4.97,5.15,1.35,1,2.83,1.5,4.38,1.5,15.9-2.35,27.15-4.3,33.73-4.67-.28,1.17-.58,2.35-.58,3.37,0,1.3,.3,2.38,.9,3.23,.58,.85,1.58,1.85,3,3,1.83,1.7,3.57,2.55,5.28,2.55,.9,0,1.88-.2,2.92-.57,8.17-3.25,15.65-8.18,22.42-14.73,6.75-6.55,11.1-13.02,13.05-19.4,5.72,.9,11.43,1.38,17.15,1.38l1.5-.05c-5,9.52-10.15,18.87-15.52,27.92l8.78,9.15c19.05-13.2,34.35-23.33,46.35-30.6-.7,.95-1.6,1.85-2.2,2.83-3.18,5.25-4.77,9.52-4.77,12.78,0,1.17,.33,2.07,.97,2.72l7.6,5.08c1.77-.6,3.75-1.58,5.92-2.93,2.92-1.77,6.22-4.23,9.88-7.32,6.37-5.37,12.52-11.28,18.52-17.62l-1.17,4.67c-1.05,4.15-1.95,8.05-2.73,11.7l7,5.25,3.87-2.8,22.25-15.95c-2.3,6.95-3.5,12-3.5,14.85,0,.77,.08,1.3,.2,1.58l8.2,5.25c5.82-4.8,17.85-13.05,36.05-24.75l-1.55-2.75Zm-181.8,16.5c-6.43,6.05-12.7,10.1-18.8,12.17-.53-.12-.8-.77-.8-1.95,0-3.12,1.73-8.45,5.18-16,3.42-7.53,7.42-14.23,11.97-20.05,.27,2.98,2.47,5,6.65,6.02,.78,.12,1.8,.35,3.1,.68,1.3,.33,2.92,.7,4.87,1.07-1.67,5.98-5.75,12-12.17,18.05Z"/>
        <polygon points="428.12 170.12 409.8 168.4 408.62 164.1 427.15 161.95 428.12 170.12"/>
      </g>
    </g>
  </g>
</svg>