<?xml version="1.0" encoding="UTF-8"?>
<svg class="icon fill" id="Layer_2" data-name="Layer 2" xmlns="http://www.w3.org/2000/svg" viewBox="0 0 438.85 296.75">
  <g id="Layer_1-2" data-name="Layer 1">
    <path d="M428.85,87.13c-6.78-16.46-16.13-30.98-28.4-42.92-12.26-12.26-27.11-21.62-44.21-28.4-17.1-6.78-35.82-10-56.15-10h-51.95v12.26c4.52-1.29,10.32-1.94,17.1-1.94,17.42,0,32.27,1.94,44.85,5.81,12.91,3.55,24.52,10,34.85,19.04,26.46,22.27,39.69,56.15,39.69,101,0,15.17-1.61,29.04-4.52,41.3-.97,3.87-2.26,7.74-3.55,11.62-3.01,4.04-23.11,30.11-59.04,32.94-41.12,3.24-66.97-26.8-69.39-29.71L78.09,0H0V10.33H2.26c7.42,0,14.52,1.94,21.3,6.13,6.78,4.2,13.55,10,20.98,17.75l2.58,154.89c.65,13.55,0,52.6-1.61,61.63-1.29,9.03-5.49,16.78-11.62,22.59-6.45,6.13-16.13,9.68-29.37,10.65v10.33H104.87v-10.33c-9.68-.97-17.43-2.58-23.56-5.49-6.13-2.58-10.97-6.45-14.2-11.3-3.23-4.84-5.49-10.32-6.78-16.78-1.29-6.78-1.94-42.27-2.26-51.95l-2.91-151.66,192.97,225.56c41.34,35.35,81.11,24.56,102.53,15.15,21.23-9.32,51.87-25.59,77.2-92.6,.32-.65,.32-.97,.65-1.61,6.78-16.13,10.33-33.56,10.33-52.28s-3.23-37.11-10-53.89ZM55.82,272.03c2.26,3.87,6.45,7.74,11.94,11.94H27.75c6.45-3.55,11.29-7.42,14.52-11.62,3.55-4.52,6.13-9.68,7.74-15.49,1.61,6.45,3.55,11.62,5.81,15.17Zm302.72-10.67c-15.04,10.99-58.58,38.32-110.4,.34L55.5,37.43c-7.1-8.39-12.59-14.52-16.46-18.07-3.87-3.55-9.36-6.45-16.46-9.04h8.71c8.71,0,15.49,1.94,20.33,5.49,4.84,3.55,9.04,7.74,12.59,12.26L234.59,226.85c4.84,5.49,11.62,11.63,13.55,14.22,15.72,14.67,32.31,25.34,66.31,18.84,32.33-6.17,58.87-31.4,68.9-65,4.84-14.84,7.42-31.62,7.42-50.98,0-65.18-24.2-107.13-72.28-126.17,7.42,1.29,14.2,2.91,20.65,5.16,6.13,1.94,12.26,4.84,18.07,8.71,10.01,6.45,18.39,15.17,25.17,25.82,7.1,10.97,12.26,23.23,15.81,37.75,3.55,14.52,5.49,30.33,5.49,47.76,0,19.69-2.58,36.79-7.74,51.95-8.5,34.21-25.12,57.48-37.39,66.45Z"/>
  </g>
</svg>