<?xml version="1.0" encoding="UTF-8"?>
<svg class="icon fill" id="Layer_2" data-name="Layer 2" xmlns="http://www.w3.org/2000/svg" viewBox="0 0 438.85 153.36">
  <g id="Layer_1-2" data-name="Layer 1">
    <g>
      <path d="M435.71,105.25L337.17,6.71c-4.4-4.3-10.17-6.71-16.35-6.71s-11.85,2.41-16.25,6.71c-4.3,4.4-6.71,10.17-6.71,16.25s2.41,11.95,6.71,16.35l89.63,89.63c.63,.63,.84,1.68,.42,2.1-.1,.1-.42,.42-.94,.52-.21,.1-.73-.1-1.05-.42l-35.54-35.54c-3.98-3.98-9.64-5.98-14.99-6.08-5.66,.1-11.01,2.41-14.89,6.5l-36.79,38.89c-4.19,4.3-3.98,11.11,.42,15.3,4.3,4.09,11.11,3.88,15.31-.42l36.27-38.26,34.91,34.91c4.3,4.3,10.17,6.71,16.25,6.71h.73c6.4-.21,12.37-3.04,16.56-7.76,7.97-9.12,7.44-23.06-1.36-31.76L319.87,24.01c-.52-.63-.52-1.47,0-1.99h1.99l98.54,98.54c4.19,4.3,11.01,4.3,15.3,0s4.19-11.01,0-15.31Z"/>
      <path d="M318.83,57.34l-49.06-49.06c-5.35-5.35-12.37-8.28-19.81-8.28-15.52,0-28.09,12.68-28.09,28.09v102.21c0,.21-.1,.42-.21,.63v.04l-.04-.04c0,.1-.1,.21-.21,.31-.63,.52-1.47,.52-1.99,0L96.55,8.38C91.31,3.04,84.18,.1,76.73,.1c-15.52,0-28.09,12.58-28.09,28.09v102.21c0,1.47-2.62,1.47-2.62,0V23.16C46.02,10.48,35.64,.1,22.96,.1S0,10.48,0,23.16v119.4c0,5.98,4.82,10.8,10.8,10.8s10.8-4.82,10.8-10.8V23.16c0-1.57,2.73-1.57,2.73,0v107.24c0,12.68,10.27,22.96,22.96,22.96s23.06-10.27,23.06-22.96V28.2c0-3.56,2.83-6.39,6.4-6.39,1.68,0,3.35,.63,4.51,1.89l122.86,122.86c4.83,4.77,11.24,6.9,17.55,6.56v.25c12.16-.63,21.91-10.8,21.91-23.06V28.09c0-3.56,2.83-6.39,6.39-6.39,1.68,0,3.25,.63,4.51,1.89l49.06,49.06c2.41,2.41,2.52,6.29,.21,8.81l-49.58,53.67c-4.09,4.4-3.77,11.22,.63,15.31,2.1,1.99,4.72,2.94,7.34,2.94,2.94,0,5.87-1.26,7.97-3.56l49.48-53.57c10.27-11.11,9.96-28.2-.73-38.89Z"/>
    </g>
  </g>
</svg>