<?xml version="1.0" encoding="UTF-8"?>
<svg class="icon fill" id="Layer_2" data-name="Layer 2" xmlns="http://www.w3.org/2000/svg" viewBox="0 0 438.85 438.85">
  <g id="Layer_1-2" data-name="Layer 1">
    <g>
      <path d="M245.64,1.57C108.35-15.44-15.44,108.35,1.57,245.64c10.35,109.41,112.04,199.53,222.15,192.87C-24.2,422.55-58.57,80.65,183.57,22.08c124.84-27.35,251.43,72.06,254.94,201.64C445.17,113.61,355.05,11.74,245.64,1.57Zm143.25,295.27l3.16,2.45v-2.28c-1.05,0-1.93-.18-3.16-.18Zm-121.33-70.84h.18c1.05-1.4,2.28-2.8,3.68-4.38l-3.86,4.38Z"/>
      <path d="M392.04,299.29v1.23h-101.34v-3.51l8.94-.35c2.98-.35,5.08-.7,6.49-1.23,1.4-.53,2.1-1.93,2.1-4.03,0-1.23-.35-2.8-1.05-4.73-.7-1.93-2.28-4.73-4.91-8.59-2.45-3.86-5.26-8.24-8.42-13.15-3.16-4.73-7.36-11.05-12.62-18.94-5.26-7.71-9.12-13.5-11.57-17.01l-5.61,6.66v38.57l.35,9.64c.18,1.05,.35,2.1,.53,2.98,.53,2.98,1.23,5.09,2.45,6.31,1.4,1.58,4.38,2.8,8.59,3.33l3.86,.35,3.86,.18v3.51h-99.24v-3.51h1.75c.7-.18,1.4-.18,2.28-.18l-1.23-1.58-95.91-122.74h-.88v98.19l.35,10.17c.53,4.56,1.58,8.07,3.51,10.34,1.93,2.28,4.73,3.68,8.59,4.21,3.86,.7,7.19,1.05,9.99,1.23,2.63,.18,4.56,.35,5.61,.35v3.51H57.68v-3.51c1.75,0,3.86-.18,6.14-.35,2.28-.17,6.31-.7,11.92-1.58,5.79-.88,8.94-5.61,9.82-14.2l.53-10.17v-95.73l-.35-6.84-.18-2.81c-1.75-2.98-4.03-5.61-6.49-8.24-2.63-2.45-5.26-4.21-8.42-5.26-2.98-.88-5.96-1.4-8.77-1.4h-6.31v-3.33h80.48l75.57,96.79h.7v-70.13l-.35-7.71c-.53-4.03-1.58-7.36-3.33-9.64-1.93-2.28-4.73-3.68-8.59-4.38-3.68-.7-6.84-1.05-9.12-1.23-1.93,0-3.68-.18-5.44-.35h-1.05v-3.33h99.77v3.33l-5.61,.53-2.63,.18c-4.21,.35-7.19,1.4-8.59,2.98-.7,.7-1.4,1.93-1.75,3.33-.53,1.75-.88,3.68-1.23,6.31l-.35,9.64v56.81c1.05-1.23,2.28-2.63,3.51-4.21h.18c1.05-1.4,2.28-2.8,3.68-4.38,2.8-3.16,5.96-7.01,9.64-11.22,7.36-8.42,14.73-17.01,22.44-25.95,7.71-8.94,12.8-15.25,15.43-18.76,2.45-3.51,3.86-6.49,3.86-8.77,0-1.93-.7-3.33-2.28-4.21-1.4-.88-3.51-1.4-5.96-1.58l-9.82-.7v-3.33h53.65v3.33c-1.93,.18-3.86,.18-5.79,.35-1.93,0-4.38,.35-7.19,.88-2.8,.53-5.79,1.75-8.77,3.33-2.98,1.75-6.49,4.91-10.7,9.29l-21.04,24.2,55.76,86.27,1.58,2.63c5.44,7.89,9.29,12.97,11.57,14.9,2.45,1.93,5.09,3.16,7.89,3.68,2.81,.53,4.91,.7,6.31,.88h.88l3.16,2.45Z"/>
    </g>
  </g>
</svg>