<?xml version="1.0" encoding="UTF-8"?>
<svg class="icon fill" id="Layer_2" data-name="Layer 2" xmlns="http://www.w3.org/2000/svg" viewBox="0 0 438.85 438.85">
  <g id="Layer_1-2" data-name="Layer 1">
    <path d="M219.42,438.85C98.43,438.85,0,340.42,0,219.43S98.43,0,219.42,0s219.42,98.43,219.42,219.43-98.43,219.42-219.42,219.42Zm0-419.36C109.18,19.49,19.49,109.18,19.49,219.43s89.69,199.94,199.94,199.94,199.94-89.69,199.94-199.94S329.67,19.49,219.42,19.49Zm0,364.62c-.38,0-.75-.02-1.12-.07-1.76-.2-3.38-.87-4.72-1.89-.77-.58-1.46-1.27-2.04-2.07-.35-.49-.66-1.01-.92-1.56L94.25,145.8c-13.13,22.22-20.01,47.38-20.01,73.63,0,31.71,10.04,61.84,29.02,87.11,3.23,4.3,2.37,10.41-1.94,13.65-4.3,3.23-10.41,2.37-13.65-1.94-21.54-28.68-32.93-62.85-32.93-98.82s11.35-70.01,32.81-98.66c.48-.66,1.04-1.27,1.68-1.81,.9-.75,1.92-1.32,3-1.7,1.35-.48,2.76-.64,4.12-.51,1.35,.12,2.68,.52,3.91,1.22,1.02,.58,1.95,1.34,2.72,2.27,.52,.63,.96,1.32,1.3,2.04l105.4,210.8V64.49c0-5.38,4.36-9.74,9.74-9.74,90.8,0,164.68,73.87,164.68,164.68s-73.8,164.6-164.54,164.68c-.04,0-.09,0-.14,0Zm9.75-309.54V364.29c75.53-5.03,135.44-68.08,135.44-144.86s-59.91-139.84-135.44-144.86Z"/>
  </g>
</svg>