<?xml version="1.0" encoding="UTF-8"?>
<svg class="icon fill" id="Layer_2" data-name="Layer 2" xmlns="http://www.w3.org/2000/svg" viewBox="0 0 438.85 426.11">
  <g id="Layer_1-2" data-name="Layer 1">
    <g>
      <path d="M143.05,0V106.91C110.11,64.14,93.63,42.76,60.69,0H0V197.82H60.69V90.92c32.95,42.77,49.42,64.15,82.37,106.91h60.69V0h-60.69Z"/>
      <path d="M102,228.29H0v197.82H102c56.18,0,101.74-44.29,101.74-98.91s-45.56-98.91-101.74-98.91Zm-15.53,156.05c-9.06,0-17.86-2.01-25.63-5.54v-103.19c7.77-3.78,16.57-5.79,25.63-5.79,32.62,0,59.03,25.67,59.03,57.39s-26.41,57.13-59.03,57.13Z"/>
      <polygon points="438.85 197.82 375 0 362.82 0 311.15 0 298.97 0 235.11 197.82 298.97 197.82 336.98 80.04 375 197.82 438.85 197.82"/>
      <rect x="235.11" y="373.67" width="203.74" height="52.44"/>
    </g>
  </g>
</svg>