<?xml version="1.0" encoding="UTF-8"?>
<svg class="icon fill" id="Layer_2" data-name="Layer 2" xmlns="http://www.w3.org/2000/svg" viewBox="0 0 439.6 342.19">
  <g id="Layer_1-2" data-name="Layer 1">
    <g>
      <g>
        <path d="M186.82,225.04v-25.04l-.3-39.74-.15-18.14-.15-11.4c0-5.41,1.85-8.1,5.54-8.1,2.2,0,3.72,.62,4.57,1.87s1.27,3.62,1.27,7.12v2.1c-.1,2.1-.15,5.54-.15,10.34l-.6,50.49-.45,46.29,.37,48.69,.52,48.84c-20.57-12.88-50.69-30.7-90.34-53.44-39.65-22.73-71.76-40.59-96.33-53.58l.15,7.34,1.5,77.34,.15,10.35c0,4.29-2,6.44-5.99,6.44s-6.14-2.65-6.14-7.94l.15-10.49,.15-16.93,.6-76.86L0,117.07c40.48,25.09,102.75,61.09,186.82,107.97Z"/>
        <path d="M239.95,50.43c-27.82,0-50.43,22.62-50.43,50.52,0-27.9-22.62-50.52-50.52-50.52,27.9,0,50.52-22.62,50.52-50.43,0,27.82,22.62,50.43,50.43,50.43Z"/>
      </g>
      <path d="M429.61,233.47c-46.35,0-84.03,37.68-84.03,84.17,0-46.49-37.68-84.17-84.17-84.17,46.49,0,84.17-37.68,84.17-84.03,0,46.35,37.68,84.03,84.03,84.03Z"/>
      <path d="M220.71,124.89h83.74c21.86,0,38.31,1.06,49.35,3.18,27.28,5.2,49.3,19.74,66.07,43.62,13.16,18.78,19.74,39.48,19.74,62.09s-6.79,43.99-20.38,62.88c-16.34,22.82-37.68,36.99-64,42.5-6.79,1.38-12.84,2.23-18.15,2.55-5.31,.32-16.98,.48-35.02,.48h-80.87l.48-105.07-.96-112.23Zm97.43,10.19l-.96,127.99,.96,68.93c14.22-.11,24.44-.66,30.64-1.67,6.21-1.01,13.35-3.26,21.41-6.77,19-8.17,33.91-21.33,44.73-39.48,9.45-15.6,14.17-32.48,14.17-50.62,0-19.74-5.57-37.89-16.69-54.44-19.82-29.4-49.16-44.1-88.06-44.1l-6.21,.16Z"/>
    </g>
  </g>
</svg>