<?xml version="1.0" encoding="UTF-8"?>
<svg class="icon fill" id="Layer_2" data-name="Layer 2" xmlns="http://www.w3.org/2000/svg" viewBox="0 0 288.19 438.85">
  <g id="Layer_1-2" data-name="Layer 1">
    <g>
      <path d="M2.07,90.47c18.56-10.72,27.84-16.08,46.41-26.8,32.13,33.72,48.2,50.59,80.33,84.33V69.78c0-9.53-1.03-17.27-3.1-23.22-2.07-5.95-5.06-9.66-8.98-11.12-2.1-.87-4.21-1.12-6.33-.76-2.12,.36-5.09,1.42-8.89,3.19v-4.81C124.41,19.83,135.86,13.22,158.75,0V4.81l-1.16,.67c-8.33,4.81-14.67,12.63-19.03,23.46-4.36,10.83-6.54,24.17-6.54,40.02V198.76c-1.09,.63-1.64,.95-2.73,1.58-39.91-41.34-59.86-62.03-99.77-103.37v107.84c0,10.48,.8,18.4,2.4,23.76,1.6,5.36,4.23,8.87,7.78,10.26,2.85,1.12,6.57,.61,10.67-.84,2.21-.78,5.63-2.21,9.93-4.43v4.81c-24.12,13.93-36.19,20.89-60.31,34.82v-4.81c6.18-4.09,11.21-8.7,15.1-13.85,3.89-5.15,6.76-11.11,8.6-17.89,1.85-6.78,2.77-14.42,2.77-22.91V111.07c0-6.32-.9-11.18-2.69-14.56-1.79-3.38-4.4-5.28-7.82-5.68-3.42-.41-7.56,.79-12.41,3.59-.6,.34-.89,.52-1.49,.86v-4.81Z"/>
      <path d="M129.44,195.22c32.31,18.65,48.46,27.98,80.77,46.64,13.13,7.58,24.59,16.67,34.37,27.26,9.79,10.59,17.97,23.07,24.7,37.03,5.92,12.28,10.7,24.99,13.98,37.99,3.28,13.01,4.92,25.37,4.92,37.1,0,12.86-1.77,23.74-5.31,32.63-3.54,8.89-8.55,15.45-15.03,19.67-6.48,4.22-14.16,5.93-23.05,5.13-8.89-.8-18.5-4.19-28.84-10.16-34.61-19.98-51.92-29.98-86.52-49.96v-5.12c1.78,1.03,2.67,1.54,4.44,2.57,7.49,4.33,13.05,4.8,16.68,1.43,3.63-3.37,5.45-10.7,5.45-21.99v-106.69c0-11.37-1.8-20.81-5.4-28.31-3.6-7.5-9.18-13.43-16.73-17.79-1.78-1.03-2.67-1.54-4.44-2.57v-4.85Zm52.28,35.04v173.36c9.41,5.43,14.12,8.15,23.53,13.58,6.68,3.86,12.34,6.56,16.99,8.1,4.65,1.55,8.71,2.04,12.2,1.47,3.49-.57,6.54-2.2,9.15-4.89,9.64-9.22,14.46-29.18,14.46-59.89,0-10.06-.6-19.92-1.79-29.58-1.19-9.66-2.92-18.55-5.18-26.68-2.27-8.13-5.1-15.8-8.54-22.91-2.82-5.83-6.06-11.09-9.63-15.73-3.57-4.64-7.7-8.88-12.37-12.72-4.68-3.84-10.3-7.65-16.86-11.44-8.78-5.07-13.17-7.61-21.96-12.68Z"/>
    </g>
  </g>
</svg>