<?xml version="1.0" encoding="UTF-8"?>
<svg class="icon fill" id="Layer_2" data-name="Layer 2" xmlns="http://www.w3.org/2000/svg" viewBox="0 0 438.85 303.39">
  <g id="Layer_1-2" data-name="Layer 1">
    <g>
      <g>
        <path d="M312.56,160.34c-1.27-2.68-3.17-5.81-5.71-9.38l-35.97-51.54,31.22-29.58c3.86-3.69,5.79-7.41,5.79-11.16,0-3.11-1.14-5.75-3.42-7.91s-5.26-3.24-8.95-3.24c-2.82,0-5.09,.61-6.79,1.82s-3.76,3.08-6.18,5.62l-50.42,52.58V63.1c0-5.25-1.2-9.15-3.59-11.72s-5.52-3.85-9.38-3.85-7.02,1.3-9.3,3.89c-2.28,2.59-3.42,6.49-3.42,11.67v94.26c0,4.04,.09,7.12,.26,9.25l-21.01,20.15-30.35-46.7c-1.21-2.08-2.59-4.38-4.15-6.92-.34-.55-.87-.83-1.25-1.33,.01-.35,.12-.59,.12-.95V63.1c0-5.25-1.2-9.15-3.59-11.72s-5.52-3.85-9.38-3.85-6.8,1.3-9.17,3.89-3.55,6.49-3.55,11.67v67.77c0,1.02,.26,1.76,.35,2.68-.1,.56-.35,1.08-.35,1.68,0,2.54,.63,5.15,1.9,7.83s3.17,5.81,5.71,9.38l35.97,51.54-31.22,29.58c-3.86,3.69-5.79,7.41-5.79,11.16,0,3.11,1.14,5.75,3.42,7.91s5.26,3.24,8.95,3.24c2.82,0,5.09-.61,6.79-1.82s3.76-3.08,6.18-5.62l50.42-52.58v44.45c0,5.25,1.2,9.15,3.59,11.72s5.52,3.85,9.38,3.85,7.02-1.3,9.3-3.89,3.42-6.49,3.42-11.67v-94.26c0-4.04-.09-7.12-.26-9.25l21.01-20.15,30.35,46.7c1.21,2.08,2.59,4.38,4.15,6.92,.34,.55,.87,.83,1.25,1.33-.01,.35-.12,.59-.12,.95v67.77c0,5.25,1.2,9.15,3.59,11.72,2.39,2.57,5.52,3.85,9.38,3.85s6.8-1.3,9.17-3.89,3.55-6.49,3.55-11.67v-67.77c0-1.02-.26-1.76-.35-2.68,.1-.56,.35-1.08,.35-1.68,0-2.54-.63-5.15-1.9-7.83Z"/>
        <path d="M432.65,73.8c-4.14-8.4-10.23-14.88-18.29-19.43-8.05-4.56-17.7-6.84-28.93-6.84-8.28,0-15.67,1.29-22.17,3.88-6.5,2.59-12.02,6.32-16.55,11.19-4.53,4.88-7.99,10.79-10.38,17.73-2.39,6.95-3.58,14.58-3.58,22.91,0,1.85,.27,3.56,.39,5.35-.12,1.11-.39,2.04-.39,3.29V241.16c0,4.9,1.07,8.58,3.2,11.03s5.04,3.68,8.73,3.68,6.41-1.23,8.52-3.68c2.1-2.45,3.16-6.13,3.16-11.03v-75.41l49.38,74.72c1.38,2.19,2.72,4.3,4.02,6.31s2.57,3.66,3.81,4.93,2.68,2.28,4.32,3.03c1.64,.75,3.62,1.12,5.92,1.12,2.94,0,5.68-.82,8.22-2.46,2.54-1.64,4.35-3.76,5.45-6.36,.92-2.36,1.38-5.62,1.38-9.77V103.4c0-11.33-2.07-21.19-6.21-29.59Zm-73.7,12.93c1.46-4.9,3.46-8.93,5.99-12.08,2.53-3.15,5.55-5.55,9.06-7.2,3.51-1.65,7.33-2.48,11.46-2.48,5.81,0,10.95,1.49,15.43,4.47,4.48,2.98,7.93,7.38,10.34,13.19s3.62,12.68,3.62,20.62c0,.05-.01,.1-.01,.15h-.02v.28c-.05,8.37-1.32,15.46-3.9,21.22-2.62,5.86-6.15,10.2-10.59,13-4.43,2.81-9.3,4.21-14.59,4.21-4.13,0-7.93-.81-11.39-2.44-3.46-1.63-6.53-4.08-9.2-7.35-2.67-3.28-4.74-7.4-6.2-12.38-1.46-4.98-2.19-10.54-2.19-16.7s.73-11.61,2.19-16.51Zm20.15,72.24c2.24,.22,4.4,.58,6.78,.58,8.52,0,16.08-1.33,22.69-3.99,2.26-.91,4.23-2.15,6.25-3.34v61.53l-35.72-54.77Z"/>
        <path d="M94.17,47.53c-3.57,0-6.41,1.23-8.52,3.68s-3.16,6.13-3.16,11.03v75.41L33.12,62.93c-1.38-2.19-2.72-4.3-4.02-6.31s-2.57-3.66-3.81-4.93-2.68-2.28-4.32-3.03-3.62-1.12-5.92-1.12c-2.94,0-5.68,.82-8.22,2.46s-4.35,3.76-5.45,6.36c-.92,2.36-1.38,5.62-1.38,9.77V200c0,11.33,2.07,21.19,6.21,29.59,4.14,8.4,10.23,14.88,18.29,19.43,8.05,4.56,17.7,6.83,28.93,6.83,8.28,0,15.67-1.29,22.17-3.88,6.5-2.59,12.02-6.32,16.55-11.2,4.53-4.88,7.99-10.79,10.38-17.73,2.39-6.95,3.58-14.58,3.58-22.91,0-1.85-.27-3.56-.39-5.35,.12-1.11,.39-2.04,.39-3.29V62.23c0-4.9-1.07-8.58-3.2-11.03-2.13-2.45-5.04-3.68-8.73-3.68Zm-34.41,96.88c-2.24-.22-4.4-.58-6.78-.58-8.52,0-16.08,1.33-22.68,3.99-2.26,.91-4.24,2.15-6.26,3.34v-61.53l35.72,54.77Zm20.15,72.24c-1.46,4.9-3.46,8.93-5.99,12.08-2.53,3.15-5.55,5.55-9.06,7.2-3.51,1.65-7.33,2.48-11.46,2.48-5.81,0-10.95-1.49-15.43-4.47-4.48-2.98-7.93-7.38-10.34-13.19-2.42-5.81-3.62-12.69-3.62-20.62,0-.05,.01-.09,.01-.15h.02v-.29c.05-8.37,1.32-15.46,3.9-21.22,2.62-5.86,6.15-10.2,10.59-13.01,4.44-2.81,9.3-4.21,14.59-4.21,4.13,0,7.93,.81,11.39,2.44,3.46,1.63,6.52,4.08,9.2,7.35,2.67,3.28,4.74,7.4,6.2,12.38,1.46,4.98,2.19,10.54,2.19,16.7s-.73,11.61-2.19,16.51Z"/>
      </g>
      <g>
        <path d="M131.02,3.42c-2.59-2.28-6.49-3.42-11.67-3.42H16.43C11.18,0,7.27,1.2,4.71,3.59S.86,9.11,.86,12.97s1.3,7.02,3.89,9.3,6.49,3.42,11.67,3.42H119.34c5.25,0,9.15-1.2,11.72-3.59s3.85-5.52,3.85-9.38-1.3-7.02-3.89-9.3Z"/>
        <path d="M434.1,3.42c-2.59-2.28-6.49-3.42-11.67-3.42h2.77c-5.25,0-9.15,1.2-11.72,3.59-2.57,2.39-3.85,5.52-3.85,9.38s1.3,7.02,3.89,9.3c2.59,2.28,6.49,3.42,11.67,3.42h-2.77c5.25,0,9.15-1.2,11.72-3.59s3.85-5.52,3.85-9.38-1.3-7.02-3.89-9.3Z"/>
        <path d="M266.93,3.42c-2.59-2.28-6.49-3.42-11.67-3.42h-67.03c-5.25,0-9.15,1.2-11.72,3.59-2.57,2.39-3.85,5.52-3.85,9.38s1.3,7.02,3.89,9.3,6.49,3.42,11.67,3.42h67.03c5.25,0,9.15-1.2,11.72-3.59,2.57-2.39,3.85-5.52,3.85-9.38s-1.3-7.02-3.89-9.3Z"/>
        <path d="M369.7,3.42c-2.59-2.28-6.49-3.42-11.67-3.42h-35.59c-5.25,0-9.15,1.2-11.72,3.59-2.57,2.39-3.85,5.52-3.85,9.38s1.3,7.02,3.89,9.3,6.49,3.42,11.67,3.42h35.59c5.25,0,9.15-1.2,11.72-3.59,2.57-2.39,3.85-5.52,3.85-9.38s-1.3-7.02-3.89-9.3Z"/>
      </g>
      <g>
        <path d="M307.84,299.98c2.59,2.28,6.49,3.42,11.67,3.42h102.92c5.25,0,9.15-1.2,11.72-3.59s3.85-5.52,3.85-9.38-1.3-7.02-3.89-9.3-6.49-3.42-11.67-3.42h-102.92c-5.25,0-9.15,1.2-11.72,3.59s-3.85,5.52-3.85,9.38,1.3,7.02,3.89,9.3Z"/>
        <path d="M4.75,299.98c2.59,2.28,6.49,3.42,11.67,3.42h-2.77c5.25,0,9.15-1.2,11.72-3.59,2.57-2.39,3.85-5.52,3.85-9.38s-1.3-7.02-3.89-9.3-6.49-3.42-11.67-3.42h2.77c-5.25,0-9.15,1.2-11.72,3.59s-3.85,5.52-3.85,9.38,1.3,7.02,3.89,9.3Z"/>
        <path d="M171.93,299.98c2.59,2.28,6.49,3.42,11.67,3.42h67.03c5.25,0,9.15-1.2,11.72-3.59,2.57-2.39,3.85-5.52,3.85-9.38s-1.3-7.02-3.89-9.3-6.49-3.42-11.67-3.42h-67.03c-5.25,0-9.15,1.2-11.72,3.59s-3.85,5.52-3.85,9.38,1.3,7.02,3.89,9.3Z"/>
        <path d="M69.16,299.98c2.59,2.28,6.49,3.42,11.67,3.42h35.59c5.25,0,9.15-1.2,11.72-3.59,2.57-2.39,3.85-5.52,3.85-9.38s-1.3-7.02-3.89-9.3-6.49-3.42-11.67-3.42h-35.59c-5.25,0-9.15,1.2-11.72,3.59-2.57,2.39-3.85,5.52-3.85,9.38s1.3,7.02,3.89,9.3Z"/>
      </g>
    </g>
  </g>
</svg>