<?xml version="1.0" encoding="UTF-8"?>
<svg class="icon fill" id="Layer_2" data-name="Layer 2" xmlns="http://www.w3.org/2000/svg" viewBox="0 0 438.86 167.15">
  <g id="Layer_1-2" data-name="Layer 1">
    <g>
      <g>
        <path d="M117.25,98.87l-35.15,57.23c-2.73,6.15-8.78,10.1-15.53,10.1H4.2c-2.32,0-4.2-1.88-4.2-4.2v-25.55c0-2.3,1.88-4.2,4.2-4.2H57l23.2-37.75c.75-1.25,2.1-2,3.57-2h29.9c1.52,0,2.92,.82,3.65,2.15,.75,1.32,.73,2.95-.07,4.23Z"/>
        <path d="M203.8,73.45c-.77,1.17-2.08,1.88-3.5,1.88h-53.65c-1.65,0-3.15-.95-3.83-2.48l-4.02-9.02-5.85,9.52c-.77,1.22-2.12,1.98-3.57,1.98h-29.92c-1.52,0-2.92-.8-3.68-2.15-.72-1.32-.7-2.95,.1-4.25L129.33,14.87c5.25-9.12,15.1-14.87,25.62-14.87,5.45,0,19.2,2.27,28.87,23.27,2.6,5.67,7.65,17.15,12.08,27.22,4.4,10.08,8.17,18.8,8.25,18.98,.55,1.3,.42,2.8-.35,3.98Z"/>
      </g>
      <g>
        <path d="M437.85,73.87c-.8,.92-1.97,1.47-3.2,1.47h-26c-1.95,0-3.63-1.32-4.08-3.2-5.4-22.02-25.05-37.43-47.8-37.43h-51.85l-23.1,37.7c-.77,1.25-2.13,2-3.6,2h-29.85c-1.53,0-2.93-.82-3.68-2.15-.75-1.32-.7-2.95,.1-4.25l35.17-57.22c2.73-6.13,8.78-10.05,15.48-10.05h61.33c23.3,0,45.6,9.82,61.17,26.95,11.13,11.95,18.35,26.75,20.85,42.8,.2,1.23-.15,2.45-.95,3.38Z"/>
        <path d="M438.8,97.42c-2.6,16.03-9.82,30.83-20.87,42.77-15.55,17.13-37.85,26.95-61.15,26.95H207.08c-.55,0-1.1-.1-1.6-.33-6.2-.45-18.45-4-27.3-23.18-5.25-11.32-20.12-45.82-20.27-46.17-.55-1.3-.43-2.77,.35-3.95,.77-1.2,2.1-1.9,3.5-1.9h53.63c1.67,0,3.18,.98,3.85,2.5l4,9,5.87-9.5c.77-1.25,2.12-2,3.57-2h29.88c1.52,0,2.92,.83,3.65,2.15,.75,1.33,.72,2.95-.08,4.25l-21.73,35.15h112.38c22.77,0,42.4-15.4,47.7-37.42,.45-1.88,2.15-3.2,4.08-3.2h26.1c1.22,0,2.4,.53,3.2,1.48,.8,.92,1.15,2.17,.95,3.4Z"/>
      </g>
    </g>
  </g>
</svg>